<svg width="20" height="20" viewBox="0 0 20 20" fill="none" xmlns="http://www.w3.org/2000/svg">
<path d="M18.4325 6.4438L18.4212 6.4338C18.3315 6.36273 18.2283 6.31049 18.1179 6.28021C18.0075 6.24992 17.8921 6.24222 17.7787 6.25755C17.5576 6.29421 17.3582 6.4124 17.22 6.5888L17.2087 6.5988C16.8575 7.0038 13.6687 10.5025 10.0025 10.5025C6.44121 10.5025 3.12745 6.96255 2.76495 6.55755L2.7537 6.54755C2.604 6.37996 2.39458 6.27773 2.17037 6.26279C1.94615 6.24785 1.72501 6.32139 1.5544 6.46763C1.38379 6.61387 1.27729 6.82116 1.25777 7.04502C1.23824 7.26888 1.30724 7.49148 1.44995 7.66505C1.98387 8.28048 2.57299 8.84576 3.20995 9.3538L1.84495 10.7313C1.7631 10.8125 1.69956 10.9103 1.65859 11.0181C1.61763 11.1259 1.6002 11.2412 1.60745 11.3563C1.61941 11.5732 1.70801 11.7787 1.85745 11.9363C1.92095 12.0271 2.00643 12.1002 2.1059 12.149C2.20536 12.1977 2.31557 12.2205 2.4262 12.215C2.54011 12.2143 2.65274 12.191 2.75764 12.1466C2.86253 12.1022 2.95762 12.0375 3.03745 11.9563L4.5812 10.4025C5.33693 10.906 6.1455 11.3251 6.99246 11.6525L6.40246 13.5788C6.36921 13.6896 6.35872 13.806 6.37163 13.9209C6.38454 14.0359 6.42057 14.147 6.47756 14.2477C6.53455 14.3484 6.61132 14.4365 6.70324 14.5067C6.79516 14.5769 6.90035 14.6278 7.01245 14.6563L7.04371 14.6663H7.26121C7.45271 14.6676 7.63896 14.6037 7.78935 14.4851C7.93973 14.3665 8.0453 14.2003 8.08871 14.0138L8.67996 12.0875C9.12145 12.1591 9.56772 12.1971 10.015 12.2013C10.4622 12.1971 10.9085 12.159 11.35 12.0875L11.9412 13.9825C11.9899 14.1654 12.0972 14.3273 12.2466 14.4433C12.3961 14.5594 12.5795 14.6232 12.7687 14.625C12.8612 14.6312 12.9537 14.6136 13.0375 14.5738C13.2525 14.5011 13.4308 14.3477 13.5348 14.1459C13.6389 13.9442 13.6604 13.7099 13.595 13.4925L13.005 11.5975C13.8543 11.2746 14.6638 10.8551 15.4175 10.3475L16.9312 11.8675C17.0105 11.9494 17.1054 12.0145 17.2102 12.0589C17.3151 12.1033 17.4279 12.1262 17.5418 12.1262C17.6558 12.1262 17.7685 12.1033 17.8734 12.0589C17.9783 12.0145 18.0732 11.9494 18.1525 11.8675C18.3115 11.7105 18.4043 11.4985 18.412 11.2751C18.4196 11.0518 18.3416 10.8339 18.1937 10.6663L16.8187 9.2788C17.4645 8.78817 18.0595 8.23416 18.595 7.62505L18.6162 7.6038C18.7263 7.41934 18.7679 7.20204 18.7338 6.98996C18.6998 6.77788 18.5922 6.58454 18.43 6.4438H18.4325Z" fill="#3F3F3F"/>
</svg>
