<svg width="41" height="40" viewBox="0 0 41 40" fill="none" xmlns="http://www.w3.org/2000/svg">
<rect x="0.75" width="40" height="40" rx="4" fill="url(#paint0_linear_826_1765)" fill-opacity="0.1"/>
<path d="M25 10L30 15V29.0082C30 29.556 29.5551 30 29.0066 30H12.9934C12.4448 30 12 29.5447 12 29.0082V10.9918C12 10.4441 12.445 10 12.9934 10H25ZM17.5946 20.8115L16.6029 21.384L17.603 23.1161L18.5953 22.5431C18.9884 22.915 19.4677 23.1967 20.0001 23.3551V24.5H22.0001V23.355C22.5325 23.1966 23.0117 22.9149 23.4048 22.543L24.3972 23.116L25.3972 21.3839L24.4055 20.8114C24.4673 20.551 24.5 20.2793 24.5 20C24.5 19.7207 24.4673 19.449 24.4054 19.1885L25.3972 18.616L24.3971 16.8839L23.4047 17.4569C23.0116 17.0851 22.5324 16.8034 22 16.6449V15.5H20V16.6449C19.4676 16.8034 18.9883 17.0851 18.5952 17.4569L17.6029 16.884L16.6029 18.6161L17.5945 19.1886C17.5327 19.449 17.5 19.7207 17.5 20C17.5 20.2794 17.5327 20.5511 17.5946 20.8115ZM21 21.5C20.1716 21.5 19.5 20.8284 19.5 20C19.5 19.1716 20.1716 18.5 21 18.5C21.8284 18.5 22.5 19.1716 22.5 20C22.5 20.8284 21.8284 21.5 21 21.5Z" fill="url(#paint1_linear_826_1765)"/>
<defs>
<linearGradient id="paint0_linear_826_1765" x1="0.75" y1="0" x2="40.75" y2="40" gradientUnits="userSpaceOnUse">
<stop stop-color="#FFAD9B"/>
<stop offset="1" stop-color="#FF2741"/>
</linearGradient>
<linearGradient id="paint1_linear_826_1765" x1="12" y1="10" x2="31.8895" y2="27.9006" gradientUnits="userSpaceOnUse">
<stop stop-color="#FFAD9B"/>
<stop offset="1" stop-color="#FF2741"/>
</linearGradient>
</defs>
</svg>
