<svg width="41" height="40" viewBox="0 0 41 40" fill="none" xmlns="http://www.w3.org/2000/svg">
<rect x="0.25" width="40" height="40" rx="4" fill="url(#paint0_linear_805_11309)" fill-opacity="0.1"/>
<path d="M25 16H28L31 20.0557V26H28.9646C28.7219 27.6961 27.2632 29 25.5 29C23.7368 29 22.2781 27.6961 22.0354 26H16.9646C16.7219 27.6961 15.2632 29 13.5 29C11.7368 29 10.2781 27.6961 10.0354 26H9V14C9 13.4477 9.44772 13 10 13H24C24.5523 13 25 13.4477 25 14V16ZM25 18V21H29V20.715L26.9917 18H25Z" fill="url(#paint1_linear_805_11309)"/>
<defs>
<linearGradient id="paint0_linear_805_11309" x1="0.25" y1="0" x2="40.25" y2="40" gradientUnits="userSpaceOnUse">
<stop stop-color="#42A4FF"/>
<stop offset="1" stop-color="#326DFF"/>
</linearGradient>
<linearGradient id="paint1_linear_805_11309" x1="9" y1="13" x2="24.2216" y2="33.9297" gradientUnits="userSpaceOnUse">
<stop stop-color="#42A4FF"/>
<stop offset="1" stop-color="#326DFF"/>
</linearGradient>
</defs>
</svg>
