<svg width="41" height="40" viewBox="0 0 41 40" fill="none" xmlns="http://www.w3.org/2000/svg">
<rect x="0.75" width="40" height="40" rx="4" fill="url(#paint0_linear_805_11319)" fill-opacity="0.15"/>
<path d="M20.5 26.3C21.2456 26.3 21.85 26.9044 21.85 27.65C21.85 28.3956 21.2456 29 20.5 29C19.7544 29 19.15 28.3956 19.15 27.65C19.15 26.9044 19.7544 26.3 20.5 26.3ZM27.25 26.3C27.9956 26.3 28.6 26.9044 28.6 27.65C28.6 28.3956 27.9956 29 27.25 29C26.5044 29 25.9 28.3956 25.9 27.65C25.9 26.9044 26.5044 26.3 27.25 26.3ZM13.75 26.3C14.4956 26.3 15.1 26.9044 15.1 27.65C15.1 28.3956 14.4956 29 13.75 29C13.0044 29 12.4 28.3956 12.4 27.65C12.4 26.9044 13.0044 26.3 13.75 26.3ZM25 15.5C27.4853 15.5 29.5 17.5147 29.5 20C29.5 22.4853 27.4853 24.5 25 24.5C23.3408 24.5 21.8406 23.5635 20.4997 21.6906C19.1594 23.5635 17.6593 24.5 16 24.5C13.5147 24.5 11.5 22.4853 11.5 20C11.5 17.5147 13.5147 15.5 16 15.5C17.6593 15.5 19.1594 16.4365 20.5003 18.3094C21.8406 16.4365 23.3408 15.5 25 15.5ZM20.5 11C21.2456 11 21.85 11.6044 21.85 12.35C21.85 13.0956 21.2456 13.7 20.5 13.7C19.7544 13.7 19.15 13.0956 19.15 12.35C19.15 11.6044 19.7544 11 20.5 11ZM13.75 11C14.4956 11 15.1 11.6044 15.1 12.35C15.1 13.0956 14.4956 13.7 13.75 13.7C13.0044 13.7 12.4 13.0956 12.4 12.35C12.4 11.6044 13.0044 11 13.75 11ZM27.25 11C27.9956 11 28.6 11.6044 28.6 12.35C28.6 13.0956 27.9956 13.7 27.25 13.7C26.5044 13.7 25.9 13.0956 25.9 12.35C25.9 11.6044 26.5044 11 27.25 11Z" fill="url(#paint1_linear_805_11319)"/>
<defs>
<linearGradient id="paint0_linear_805_11319" x1="0.75" y1="0" x2="40.75" y2="40" gradientUnits="userSpaceOnUse">
<stop stop-color="#B8ED83"/>
<stop offset="1" stop-color="#0FBD7A"/>
</linearGradient>
<linearGradient id="paint1_linear_805_11319" x1="11.5" y1="11" x2="29.5" y2="29" gradientUnits="userSpaceOnUse">
<stop stop-color="#B8ED83"/>
<stop offset="1" stop-color="#0FBD7A"/>
</linearGradient>
</defs>
</svg>
