<svg width="18" height="31" viewBox="0 0 18 31" fill="none" xmlns="http://www.w3.org/2000/svg">
<path d="M6.33333 28C6.33333 29.4728 7.52724 30.6667 9 30.6667C10.4728 30.6667 11.6667 29.4728 11.6667 28C11.6667 26.5272 10.4728 25.3333 9 25.3333C7.52724 25.3333 6.33333 26.5272 6.33333 28ZM9.5 16C9.5 15.7239 9.27614 15.5 9 15.5C8.72386 15.5 8.5 15.7239 8.5 16H9.5ZM9.5 28V16H8.5V28H9.5Z" fill="#3370FF"/>
<rect width="18" height="18" rx="9" fill="#3370FF"/>
<path d="M13.4 10.28C13.34 11.0733 13.2233 11.5867 13.05 11.82C12.9033 12.06 12.59 12.18 12.11 12.18H10.35C9.78333 12.18 9.5 11.8967 9.5 11.33V8.02H12.26V6.14H9.35V5.46H12.96V8.71H10.22V11.07C10.22 11.3233 10.36 11.46 10.64 11.48H11.99C12.27 11.48 12.46 11.38 12.56 11.18C12.6267 11 12.68 10.6233 12.72 10.05L13.4 10.28ZM4.88 6.18H6.54V4.81H7.24V6.18H8.89V6.81H7.24V8.29H9.02V8.95H7.44V10.36H8.86V11.02H7.44V12.86C8.07333 13.0533 9.43 13.15 11.51 13.15C12.3833 13.15 13.07 13.1333 13.57 13.1L13.45 13.81H11.67C9.19 13.81 7.63333 13.6767 7 13.41C6.46 13.1767 5.97667 12.75 5.55 12.13C5.38333 12.8433 5.17667 13.4733 4.93 14.02L4.38 13.53C4.87333 12.3767 5.15 11.0633 5.21 9.59L5.85 9.66C5.83 10.2333 5.78 10.78 5.7 11.3C6.02 11.8267 6.37 12.2267 6.75 12.5V8.95H4.68V8.29H6.54V6.81H4.88V6.18Z" fill="white"/>
</svg>
