<svg width="20" height="20" viewBox="0 0 20 20" fill="none" xmlns="http://www.w3.org/2000/svg">
<g id="Frame">
<path id="Vector" d="M10 11.6666V13.3333C7.23857 13.3333 5 15.5719 5 18.3333H3.33333C3.33333 14.6514 6.3181 11.6666 10 11.6666ZM10 10.8333C7.2375 10.8333 5 8.59581 5 5.83331C5 3.07081 7.2375 0.833313 10 0.833313C12.7625 0.833313 15 3.07081 15 5.83331C15 8.59581 12.7625 10.8333 10 10.8333ZM10 9.16665C11.8417 9.16665 13.3333 7.67498 13.3333 5.83331C13.3333 3.99165 11.8417 2.49998 10 2.49998C8.15833 2.49998 6.66667 3.99165 6.66667 5.83331C6.66667 7.67498 8.15833 9.16665 10 9.16665ZM17.357 17.5592L15 20L12.643 17.5592C11.3412 16.2112 11.3412 14.0256 12.643 12.6776C13.9447 11.3296 16.0552 11.3296 17.357 12.6776C18.6587 14.0256 18.6587 16.2112 17.357 17.5592ZM16.1581 16.4015C16.8362 15.6993 16.8362 14.5376 16.1581 13.8354C15.5117 13.166 14.4883 13.166 13.8419 13.8354C13.1638 14.5376 13.1638 15.6993 13.8419 16.4015L15 17.6007L16.1581 16.4015Z" fill="#3F3F3F"/>
</g>
</svg>
