<svg width="20" height="20" viewBox="0 0 20 20" fill="none" xmlns="http://www.w3.org/2000/svg">
<g id="Frame">
<path id="Vector" d="M7.47045 15C7.26826 16.4134 6.05268 17.5 4.58331 17.5C3.11395 17.5 1.89836 16.4134 1.69618 15H0.833313V5.00002C0.833313 4.53979 1.20641 4.16669 1.66665 4.16669H13.3333C13.7936 4.16669 14.1666 4.53979 14.1666 5.00002V6.66669H16.6666L19.1666 10.0464V15H17.4705C17.2682 16.4134 16.0526 17.5 14.5833 17.5C13.114 17.5 11.8984 16.4134 11.6961 15H7.47045ZM12.5 5.83335H2.49998V12.5421C3.02936 12.0019 3.7672 11.6667 4.58331 11.6667C5.74681 11.6667 6.75119 12.3479 7.2193 13.3334H11.9473C12.0871 13.0392 12.2746 12.772 12.5 12.5421V5.83335ZM14.1666 10.8334H17.5V10.5959L15.8264 8.33335H14.1666V10.8334ZM14.5833 15.8334C15.1276 15.8334 15.5906 15.4855 15.7621 15C15.8082 14.8697 15.8333 14.7294 15.8333 14.5834C15.8333 13.893 15.2736 13.3334 14.5833 13.3334C13.893 13.3334 13.3333 13.893 13.3333 14.5834C13.3333 14.7294 13.3584 14.8697 13.4045 15C13.5761 15.4855 14.0391 15.8334 14.5833 15.8334ZM5.83331 14.5834C5.83331 13.893 5.27367 13.3334 4.58331 13.3334C3.89295 13.3334 3.33331 13.893 3.33331 14.5834C3.33331 14.7294 3.35838 14.8697 3.40444 15C3.57604 15.4855 4.03905 15.8334 4.58331 15.8334C5.12757 15.8334 5.59059 15.4855 5.76219 15C5.80825 14.8697 5.83331 14.7294 5.83331 14.5834Z" fill="#3F3F3F"/>
</g>
</svg>
