<svg width="20" height="20" viewBox="0 0 20 20" fill="none" xmlns="http://www.w3.org/2000/svg">
<g id="Frame">
<path id="Vector" d="M7.47047 15C7.26828 16.4134 6.0527 17.5 4.58333 17.5C3.11397 17.5 1.89838 16.4134 1.6962 15H0.833332V5.00002C0.833332 4.53979 1.20643 4.16669 1.66667 4.16669H13.3333C13.7936 4.16669 14.1667 4.53979 14.1667 5.00002V6.66669H16.6667L19.1667 10.0464V15H17.4705C17.2682 16.4134 16.0527 17.5 14.5833 17.5C13.114 17.5 11.8984 16.4134 11.6962 15H7.47047ZM12.5 5.83335H2.5V12.5421C3.02938 12.0019 3.76722 11.6667 4.58333 11.6667C5.74683 11.6667 6.75121 12.3479 7.21932 13.3334H11.9473C12.0871 13.0392 12.2747 12.772 12.5 12.5421V5.83335ZM14.1667 10.8334H17.5V10.5959L15.8264 8.33335H14.1667V10.8334ZM14.5833 15.8334C15.1276 15.8334 15.5906 15.4855 15.7622 15C15.8082 14.8697 15.8333 14.7294 15.8333 14.5834C15.8333 13.893 15.2737 13.3334 14.5833 13.3334C13.893 13.3334 13.3333 13.893 13.3333 14.5834C13.3333 14.7294 13.3584 14.8697 13.4045 15C13.5761 15.4855 14.0391 15.8334 14.5833 15.8334ZM5.83333 14.5834C5.83333 13.893 5.27369 13.3334 4.58333 13.3334C3.89297 13.3334 3.33333 13.893 3.33333 14.5834C3.33333 14.7294 3.3584 14.8697 3.40446 15C3.57606 15.4855 4.03907 15.8334 4.58333 15.8334C5.12759 15.8334 5.59061 15.4855 5.76221 15C5.80827 14.8697 5.83333 14.7294 5.83333 14.5834Z" fill="#3370FF"/>
</g>
</svg>
