<svg width="31" height="30" viewBox="0 0 31 30" fill="none" xmlns="http://www.w3.org/2000/svg">
<g id="Frame">
<path id="Vector" d="M15.5 0.865356C12.688 0.865356 9.93913 1.69434 7.60103 3.24747C5.26293 4.8006 3.4406 7.00813 2.3645 9.59089C1.28839 12.1737 1.00683 15.0157 1.55542 17.7575C2.10402 20.4993 3.45813 23.0179 5.44652 24.9947C7.43491 26.9714 9.96827 28.3176 12.7262 28.863C15.4842 29.4084 18.3429 29.1285 20.9409 28.0587C23.5389 26.9888 25.7594 25.1772 27.3216 22.8527C28.8839 20.5283 29.7178 17.7955 29.7178 15C29.7178 11.2512 28.2198 7.65604 25.5535 5.00529C22.8871 2.35453 19.2708 0.865356 15.5 0.865356ZM20.1425 15.998L16.6606 17.9971L13.1787 19.9961C13.0024 20.0973 12.8023 20.1507 12.5987 20.1507C12.3951 20.1508 12.195 20.0976 12.0186 19.9964C11.8422 19.8953 11.6957 19.7498 11.5937 19.5746C11.4918 19.3993 11.438 19.2005 11.4378 18.998V11.0019C11.438 10.7995 11.4918 10.6006 11.5937 10.4254C11.6957 10.2501 11.8422 10.1047 12.0186 10.0035C12.195 9.90239 12.3951 9.84918 12.5987 9.84923C12.8023 9.84928 13.0024 9.9026 13.1787 10.0038L16.6606 12.0029L20.1425 14.0019C20.3184 14.1033 20.4644 14.2489 20.5659 14.4241C20.6674 14.5992 20.7208 14.7978 20.7208 15C20.7208 15.2021 20.6674 15.4007 20.5659 15.5759C20.4644 15.751 20.3184 15.8966 20.1425 15.998Z" fill="white"/>
</g>
</svg>
