<svg xmlns="http://www.w3.org/2000/svg" width="25" height="24" viewBox="0 0 25 24" fill="none">
  <path d="M20.7667 14.5805V20.0578C20.7667 20.5782 20.3441 21 19.823 21H4.61048C4.08927 21 3.66675 20.5735 3.66675 20.0429V8.65H9.36675C9.89141 8.65 10.3167 8.22467 10.3167 7.7V2H19.8184C20.3422 2 20.7667 2.43254 20.7667 2.94221V6.51949L12.2179 15.0684L12.212 19.0953L16.2461 19.1011L20.7667 14.5805ZM21.506 8.46723L22.8495 9.81071L15.4602 17.2L14.1148 17.198L14.1167 15.8565L21.506 8.46723ZM3.66675 6.75L8.41675 2.00302V6.75H3.66675Z" fill="#3370FF"/>
</svg>