<svg xmlns="http://www.w3.org/2000/svg" width="25" height="24" viewBox="0 0 25 24" fill="none">
  <path d="M21.6246 13.8558L20.5963 11.9772L18.6128 8.34712C18.3251 7.63437 17.6076 7.63437 17.3199 8.34712L15.4859 11.6954L12.2133 5.71158L11.1544 3.77222L10.6403 2.83293C10.1952 1.72236 9.0826 1.72236 8.64138 2.83293L1.48989 16.7952C1.33325 17.5 1.33325 18.4086 2.49125 18.4086H22.5837C23.1592 18.4086 23.5199 17.5135 23.2321 16.7952L21.6246 13.8558ZM23.3333 21.0552C23.3333 20.5303 23.3333 20 23.3333 20.1104H1.33325V20.3871C1.33325 20.3871 1.33325 20.8046 1.33325 21.0552C1.33325 21.3058 1.33325 21.7233 1.33325 21.7233V22H23.3333C23.3333 22 23.3333 21.5801 23.3333 21.0552Z" fill="#3370FF"/>
</svg> 